# xmcd
#
# Track frame offsets:
#	150
#	11323
#	20904
#	37535
#	47740
#	58878
#	68606
#	76301
#	86376
#	98674
#	107160
#	114513
#	128912
#	144451
#
# Disc length: 2066 seconds
#
# Revision: 1
# Processed by: cddbd v1.5.1PL0 Copyright (c) Steve Scherf et al.
# Submitted via: audiograbber 1.83.01
#
DISCID=aa08100e
DTITLE=John Hore - Encore
DYEAR=1900
DGENRE=
TTITLE0=English Country Garden
TTITLE1=Billy Bayou
TTITLE2=Mother
TTITLE3=Telephone To Glory
TTITLE4=Half As Much
TTITLE5=Poor Howard
TTITLE6=Cattle Call
TTITLE7=Followed Cloesly By My Teardrop
TTITLE8=Ivory Tower
TTITLE9=That's Why I Love You Like I Do
TTITLE10=My Voice Keeps Changing On Me
TTITLE11=Letter Edged In Black
TTITLE12=Old Shep
TTITLE13=Streets Of Laredo
EXTD=
EXTT0=
EXTT1=
EXTT2=
EXTT3=
EXTT4=
EXTT5=
EXTT6=
EXTT7=
EXTT8=
EXTT9=
EXTT10=
EXTT11=
EXTT12=
EXTT13=
PLAYORDER=
